<?xml version="1.0" encoding="UTF-8" standalone="no"?>
<!-- Created with Inkscape (http://www.inkscape.org/) -->

<svg
   width="210mm"
   height="297mm"
   viewBox="0 0 210 297"
   version="1.1"
   id="svg4055"
   inkscape:version="1.2.2 (732a01da63, 2022-12-09)"
   sodipodi:docname="AJUSTES.svg"
   xmlns:inkscape="http://www.inkscape.org/namespaces/inkscape"
   xmlns:sodipodi="http://sodipodi.sourceforge.net/DTD/sodipodi-0.dtd"
   xmlns="http://www.w3.org/2000/svg"
   xmlns:svg="http://www.w3.org/2000/svg">
  <sodipodi:namedview
     id="namedview4057"
     pagecolor="#ffffff"
     bordercolor="#002369"
     borderopacity="0.25"
     inkscape:showpageshadow="2"
     inkscape:pageopacity="0.0"
     inkscape:pagecheckerboard="0"
     inkscape:deskcolor="#d1d1d1"
     inkscape:document-units="mm"
     showgrid="false"
     inkscape:zoom="0.46769781"
     inkscape:cx="397.69269"
     inkscape:cy="562.32891"
     inkscape:window-width="1366"
     inkscape:window-height="705"
     inkscape:window-x="-8"
     inkscape:window-y="-8"
     inkscape:window-maximized="1"
     inkscape:current-layer="layer1" />
  <defs
     id="defs4052" />
  <g
     inkscape:label="Capa 1"
     inkscape:groupmode="layer"
     id="layer1">
    <path
       id="path1406-5"
       style="display:inline;fill:#002369;stroke:#002369;stroke-width:3.31507;stroke-dasharray:none;stroke-opacity:1"
       d="m 90.747884,77.55257 v 13.69347 a 58.97384,58.97384 0 0 0 -18.562493,8.13344 l -11.06094,-10.60984 -19.422862,20.24512 11.470202,11.00388 a 58.97384,58.97384 0 0 0 -5.799818,15.01442 H 34.051631 v 28.06071 h 13.623007 a 58.97384,58.97384 0 0 0 6.188124,15.14389 l -10.26153,10.69551 20.247025,19.4209 9.561056,-9.96457 a 58.97384,58.97384 0 0 0 17.338571,7.36445 v 13.69348 h 28.056886 v -13.69348 a 58.97384,58.97384 0 0 0 16.56766,-6.87905 l 8.72545,8.37139 19.42473,-20.24706 -8.32001,-7.98118 a 58.97384,58.97384 0 0 0 6.67732,-15.92428 h 14.06845 v -28.06071 h -13.75819 a 58.97384,58.97384 0 0 0 -8.84155,-19.97295 l 8.72924,-9.1004 -20.24703,-19.42475 -9.44874,9.85231 a 58.97384,58.97384 0 0 0 -13.57733,-5.1641 v -13.6706 z m 13.531656,30.15451 a 41.356472,41.356472 0 0 1 41.3563,41.35633 41.356472,41.356472 0 0 1 -41.3563,41.35634 41.356472,41.356472 0 0 1 -41.356334,-41.35634 41.356472,41.356472 0 0 1 41.356334,-41.35633 z" />
  </g>
</svg>
