<?xml version="1.0" encoding="UTF-8" standalone="no"?>
<!-- Created with Inkscape (http://www.inkscape.org/) -->

<svg
   width="194.00946mm"
   height="176.42177mm"
   viewBox="0 0 194.00946 176.42177"
   version="1.1"
   id="svg20655"
   xmlns="http://www.w3.org/2000/svg"
   xmlns:svg="http://www.w3.org/2000/svg">
  <defs
     id="defs20652" />
  <g
     id="layer1"
     transform="translate(-7.9952702,-55.521089)">
    <g
       id="g21876"
       transform="matrix(4.9367638,0,0,4.9367638,-130.85266,-440.23367)"
       style="display:inline">
      <path
         id="rect10279-7-7"
         style="fill:#002369;fill-opacity:1;stroke:#f6c53c;stroke-width:0.9;stroke-dasharray:none;stroke-opacity:1"
         d="m 60.615493,101.8328 -9.334879,6.89672 c -2.230229,0.22678 -4.615462,1.19644 -6.683308,2.71711 l -0.02124,-0.0264 -5.830867,4.30842 12.737383,7.36862 1.512744,-1.11739 -0.02382,-0.0298 c 2.073932,-1.53238 2.68983,-4.20841 4.475562,-5.52772 l 9.333327,-6.89572 z" />
      <path
         id="rect10279-6"
         style="fill:#002369;fill-opacity:1;stroke:#f6c53c;stroke-width:0.9;stroke-dasharray:none;stroke-opacity:1"
         d="m 28.755962,106.11787 6.174294,9.63108 c 0.0033,2.15344 0.760102,4.53211 2.120494,6.66484 l -0.02955,0.0175 6.984396,10.89472 2.856519,-1.68841 1.357678,2.1178 2.644827,-1.56328 1.623724,2.53279 2.935903,-1.73533 -1.623724,-2.53279 0.529671,-0.31308 2.827411,-1.6712 -8.324427,-12.98499 -0.03351,0.0198 c -1.371903,-2.13976 -4.079842,-3.00591 -5.260972,-4.84831 l -6.173479,-9.6298 z" />
      <path
         style="fill:#f6c53c;fill-opacity:1;stroke:#f6c53c;stroke-width:0.9;stroke-dasharray:none;stroke-opacity:1"
         d="m 46.862115,131.63757 -6.018533,-9.3881"
         id="path12559-77" />
      <path
         style="fill:#f6c53c;fill-opacity:1;stroke:#f6c53c;stroke-width:0.9;stroke-dasharray:none;stroke-opacity:1"
         d="m 50.864621,132.19209 -6.313154,-9.78701"
         id="path12559-5-6" />
      <path
         style="fill:#f6c53c;fill-opacity:1;stroke:#f6c53c;stroke-width:0.9;stroke-dasharray:none;stroke-opacity:1"
         d="M 53.800524,130.45676 46.32716,119.00624"
         id="path12559-7-8" />
      <path
         id="rect13454-3"
         style="fill:#002369;fill-opacity:1;stroke:#f6c53c;stroke-width:0.883822;stroke-dasharray:none;stroke-opacity:1"
         d="m 47.028257,110.05923 -8.649716,6.90815 v 0 l 0.834311,4.0697 3.256977,-0.26306 -0.195239,-2.22978 7.154061,-5.71369 z" />
      <path
         id="rect10279-8-9"
         style="fill:#002369;fill-opacity:1;stroke:#f6c53c;stroke-width:0.9;stroke-dasharray:none;stroke-opacity:1"
         d="m 39.614574,130.79928 2.953572,-2.07492 -1.980651,-2.59945 2.090248,-1.46876 -1.834162,-2.40668 2.499571,-1.75615 -2.035487,-2.67155 -2.500083,1.75617 -0.367003,-0.48213 -1.960729,-2.57254 -4.289938,3.01427 z" />
      <path
         style="fill:#f6c53c;fill-opacity:1;stroke:#f6c53c;stroke-width:0.9;stroke-dasharray:none;stroke-opacity:1"
         d="m 38.807582,119.57794 -4.803501,2.44453"
         id="path13446-1" />
      <path
         style="fill:#f6c53c;fill-opacity:1;stroke:#f6c53c;stroke-width:0.9;stroke-dasharray:none;stroke-opacity:1"
         d="m 40.84358,122.24947 -4.941337,2.91893"
         id="path13448-4" />
      <path
         style="fill:#f6c53c;fill-opacity:1;stroke:#f6c53c;stroke-width:0.9;stroke-dasharray:none;stroke-opacity:1"
         d="m 40.587494,126.12491 -2.809116,2.17955"
         id="path13452-1" />
      <path
         id="path13487-1"
         style="fill:#002369;fill-opacity:1;stroke:#002369  ;stroke-width:0.462368;stroke-dasharray:none;stroke-opacity:1"
         d="m 50.241212,109.7738 a 1.0868695,2.8885741 73.932274 0 0 -2.948314,0.70116 1.0868695,2.8885741 73.932274 0 0 -0.958603,1.77726 1.0868695,2.8885741 73.932274 0 0 1.761838,0.0865 2.7538036,2.0592059 0 0 0 -0.01761,0.22129 2.7538036,2.0592059 0 0 0 2.753596,2.05923 2.7538036,2.0592059 0 0 0 2.754119,-2.05923 2.7538036,2.0592059 0 0 0 -2.091226,-1.99855 1.0868695,2.8885741 73.932274 0 0 -0.371838,-0.63602 1.0868695,2.8885741 73.932274 0 0 -0.881964,-0.15167 z" />
    </g>
  </g>
</svg>
