<svg xmlns:xlink="http://www.w3.org/1999/xlink" width="1106" xmlns="http://www.w3.org/2000/svg" height="805" id="screenshot-f4b1cc26-a059-8079-8002-a222a03149d2" viewBox="-275.5 -30.6 1106 805" style="-webkit-print-color-adjust: exact;" fill="none" version="1.1"><g id="shape-f4b1cc26-a059-8079-8002-a222a03149d2" rx="0" ry="0"><g id="shape-f4b1cc26-a059-8079-8002-a22250c6270b" rx="0" ry="0"><g id="shape-f4b1cc26-a059-8079-8002-a220d9abb3cf"><style type="text/css" rx="0" ry="0" style="fill: rgb(0, 0, 0);">.st0{fill:#F1F2F2;}
	.st1{fill:#587BC9;}
	.st2{fill:#2B3342;}
	.st3{fill:#E2E2E2;}
	.st4{fill:#AA6755;}
	.st5{fill:#4F4B47;}
	.st6{fill:#A9B4B9;}
	.st7{fill:#FFFFFF;}
	.st8{fill:#305399;}
	.st9{fill:#3B455A;}
	.st10{fill:#7DB5DB;}
	.st11{fill:#826656;}
	.st12{fill:#EAC1A4;}
	.st13{fill:#3B3631;}
	.st14{fill:#D5C6AB;}
	.st15{fill:#363F51;}
	.st16{fill:#D3D3D3;}</style></g><g id="shape-f4b1cc26-a059-8079-8002-a220d9ad0ce3" rx="0" ry="0" style="fill: rgb(0, 0, 0);"><g id="shape-f4b1cc26-a059-8079-8002-a220d9b056dc"><g class="fills" id="fills-f4b1cc26-a059-8079-8002-a220d9b056dc"><path class="st0" rx="0" ry="0" d="M64.059,78.905C60.599,78.915,57.138,78.998,53.685,79.381C52.382,79.526,51.107,79.844,49.802,79.972C47.195,80.228,44.633,80.705,42.017,80.926C39.910,81.104,37.794,81.208,35.693,81.433C33.723,81.644,31.542,81.596,29.588,81.247C28.141,80.988,26.688,80.843,25.265,80.429C23.673,79.964,21.945,79.632,20.286,79.645C17.921,79.662,15.618,79.664,13.355,80.484C12.561,80.772,11.588,81.244,10.985,81.848C9.605,83.230,9.418,86.679,10.796,88.112C13.118,90.524,18.074,91.471,21.330,91.516C24.896,91.565,28.362,91.300,31.934,91.145C35.253,91.000,38.563,90.795,41.888,90.802C48.679,90.817,55.469,90.802,62.247,90.349C68.616,89.924,75.000,90.069,81.382,90.069C87.927,90.069,94.426,90.121,100.924,90.989C103.755,91.368,106.639,91.500,109.484,91.765C112.032,92.002,114.480,91.760,117.018,91.541C119.149,91.357,121.267,90.810,123.202,89.887C124.735,89.156,127.467,86.884,127.937,85.140C129.255,80.249,109.368,80.366,106.315,80.377C102.899,80.389,99.457,80.502,96.044,80.372C94.608,80.317,93.194,80.038,91.793,79.730C90.397,79.424,88.991,79.503,87.576,79.374C81.674,78.839,75.758,78.917,69.837,78.917C67.915,78.916,65.987,78.899,64.059,78.905ZZ" style="fill: rgb(246, 197, 60); fill-opacity: 1;"/></g></g></g><g id="shape-f4b1cc26-a059-8079-8002-a220d9b16c47" rx="0" ry="0" style="fill: rgb(0, 0, 0);"><g id="shape-f4b1cc26-a059-8079-8002-a220d9b180ee" rx="0" ry="0" style="fill: rgb(0, 0, 0);"><g id="shape-f4b1cc26-a059-8079-8002-a220d9b22da1"><g class="fills" id="fills-f4b1cc26-a059-8079-8002-a220d9b22da1"><path class="st1" rx="0" ry="0" d="M106.789,62.877L107.174,71.796L106.044,86.960L104.354,87.080L102.302,73.306L99.461,61.653Z" style="fill: rgb(0, 35, 105); fill-opacity: 1;"/></g></g><g id="shape-f4b1cc26-a059-8079-8002-a220d9b260e3"><g class="fills" id="fills-f4b1cc26-a059-8079-8002-a220d9b260e3"><path class="st2" rx="0" ry="0" d="M104.415,87.791L106.308,88.572L107.156,87.596L106.178,86.748L104.350,86.878Z" style="fill: rgb(0, 35, 105); fill-opacity: 1;"/></g></g></g><g id="shape-f4b1cc26-a059-8079-8002-a220d9b2aab2" rx="0" ry="0" style="fill: rgb(0, 0, 0);"><g id="shape-f4b1cc26-a059-8079-8002-a220d9b2ca44"><g class="fills" id="fills-f4b1cc26-a059-8079-8002-a220d9b2ca44"><path class="st1" rx="0" ry="0" d="M94.826,59.721L94.456,66.462L95.555,86.507L97.248,86.592L99.783,73.445L102.021,59.028Z" style="fill: rgb(0, 35, 105); fill-opacity: 1;"/></g></g><g id="shape-f4b1cc26-a059-8079-8002-a220d9b36555"><g class="fills" id="fills-f4b1cc26-a059-8079-8002-a220d9b36555"><path class="st2" rx="0" ry="0" d="M97.202,87.303L95.327,88.125L94.458,87.166L95.418,86.299L97.248,86.389Z" style="fill: rgb(0, 35, 105); fill-opacity: 1;"/></g></g></g><g id="shape-f4b1cc26-a059-8079-8002-a220d9b3a15a" rx="0" ry="0" style="fill: rgb(0, 0, 0);"><g id="shape-f4b1cc26-a059-8079-8002-a220d9b4000e"><g class="fills" id="fills-f4b1cc26-a059-8079-8002-a220d9b4000e"><path class="st3" rx="0" ry="0" d="M104.664,39.862L99.385,39.297C99.385,39.297,96.448,39.610,94.455,46.572C93.346,50.446,93.009,56.548,92.927,61.201C93.052,61.865,93.776,64.772,96.839,64.278C102.099,63.432,104.900,62.584,107.190,63.008C109.141,63.432,108.977,60.749,108.762,58.703L107.984,52.371L104.664,39.862ZZ" style="fill: rgb(20, 94, 150); fill-opacity: 1;"/></g></g></g><g id="shape-f4b1cc26-a059-8079-8002-a220d9b4460e" rx="0" ry="0" style="fill: rgb(0, 0, 0);"><g id="shape-f4b1cc26-a059-8079-8002-a220d9b567b4"><g class="fills" id="fills-f4b1cc26-a059-8079-8002-a220d9b567b4"><path class="st4" rx="0" ry="0" d="M103.644,33.302C102.314,33.009,100.944,32.747,99.612,33.010C99.319,33.068,99.007,33.169,98.848,33.420C98.787,33.518,98.755,33.630,98.724,33.741C98.388,34.988,97.962,36.838,98.784,37.987C98.941,38.207,99.151,38.380,99.378,38.521C99.682,38.710,100.017,38.839,100.363,38.907C100.292,39.217,100.191,39.521,100.064,39.813C100.369,40.271,101.790,40.326,102.053,39.886C102.067,39.505,102.082,39.125,102.097,38.744C102.270,38.674,102.437,38.590,102.594,38.487C103.201,38.088,103.601,37.481,103.833,36.804C104.086,36.065,104.442,35.365,104.674,34.612C104.759,34.338,104.825,34.026,104.680,33.778C104.527,33.515,104.194,33.424,103.896,33.358C103.814,33.340,103.729,33.320,103.644,33.302ZZ"/></g></g><g id="shape-f4b1cc26-a059-8079-8002-a220d9b67d62"><g class="fills" id="fills-f4b1cc26-a059-8079-8002-a220d9b67d62"><path class="st5" rx="0" ry="0" d="M99.215,34.015C99.873,33.592,100.860,33.411,101.478,33.455C103.349,33.589,104.033,34.960,104.133,36.676C104.648,36.024,105.614,35.202,105.673,34.360C105.721,33.672,105.625,32.733,105.239,32.139C104.877,31.583,103.952,31.278,103.403,30.955C102.885,30.651,102.367,30.347,101.848,30.043C101.740,29.979,101.629,29.916,101.506,29.894C101.360,29.868,101.212,29.906,101.070,29.943C99.845,30.259,98.620,30.575,97.395,30.891C97.159,30.952,96.892,31.040,96.805,31.267C96.752,31.405,96.783,31.558,96.815,31.703C96.953,32.338,97.221,32.987,97.287,33.629C97.362,34.002,97.585,35.917,98.248,35.695C98.443,35.378,98.471,34.987,98.624,34.647C98.735,34.397,98.948,34.186,99.215,34.015ZZ"/></g></g></g><g id="shape-f4b1cc26-a059-8079-8002-a220d9b6b5ad"><g class="fills" id="fills-f4b1cc26-a059-8079-8002-a220d9b6b5ad"><path class="st6" rx="0" ry="0" d="M99.385,39.297L97.433,39.890L90.305,47.343L89.882,49.799L93.289,55.414L94.209,53.356L92.766,49.206L95.057,47.596L98.112,40.737Z"/></g></g></g><g id="shape-f4b1cc26-a059-8079-8002-a220d9b732ff" rx="0" ry="0" style="fill: rgb(0, 0, 0);"><g id="shape-f4b1cc26-a059-8079-8002-a220d9b7f3ac"><g class="fills" id="fills-f4b1cc26-a059-8079-8002-a220d9b7f3ac"><path class="st7" rx="0" ry="0" d="M108.252,37.209C108.121,37.144,107.990,37.081,107.858,37.018C109.182,35.100,109.897,32.745,109.897,30.249C109.897,24.229,105.644,19.332,100.415,19.332C95.187,19.332,90.934,24.229,90.934,30.249C90.934,32.745,91.650,35.101,92.973,37.018C92.768,37.113,92.631,37.181,92.571,37.212C87.014,39.759,83.425,45.321,83.425,51.394L83.425,55.178C83.425,56.807,84.753,58.131,86.384,58.131L114.444,58.131C116.077,58.131,117.403,56.806,117.403,55.178L117.403,51.394C117.406,45.320,113.814,39.754,108.252,37.209ZZ"/></g></g><g id="shape-f4b1cc26-a059-8079-8002-a220d9b7f3ad" rx="0" ry="0" style="fill: rgb(0, 0, 0);"><g id="shape-f4b1cc26-a059-8079-8002-a220d9b87091"><g class="fills" id="fills-f4b1cc26-a059-8079-8002-a220d9b87091"><path class="st8" rx="0" ry="0" d="M107.809,38.132C107.757,38.194,107.708,38.258,107.656,38.319C105.739,40.562,103.168,41.797,100.417,41.797C97.665,41.797,95.094,40.562,93.177,38.319C93.124,38.258,93.075,38.194,93.025,38.132C87.981,40.432,84.452,45.522,84.452,51.395L84.452,55.179C84.452,56.246,85.319,57.110,86.387,57.110L114.447,57.110C115.516,57.110,116.381,56.245,116.381,55.179L116.381,51.395C116.381,45.522,112.853,40.432,107.809,38.132ZZ" style="fill: rgb(0, 35, 104); fill-opacity: 1;"/></g></g><g id="shape-f4b1cc26-a059-8079-8002-a220d9b90cc7"><g class="fills" id="fills-f4b1cc26-a059-8079-8002-a220d9b90cc7"><path class="st8" rx="0" ry="0" d="M100.417,40.143C102.638,40.143,104.659,39.140,106.168,37.500C107.831,35.693,108.873,33.114,108.873,30.249C108.873,24.784,105.086,20.355,100.415,20.355C95.744,20.355,91.958,24.784,91.958,30.249C91.958,33.114,93.000,35.693,94.663,37.500C96.174,39.140,98.194,40.143,100.417,40.143ZZ" style="fill: rgb(0, 35, 104); fill-opacity: 1;"/></g></g></g></g><g id="shape-f4b1cc26-a059-8079-8002-a220d9b95e02"><g class="fills" id="fills-f4b1cc26-a059-8079-8002-a220d9b95e02"><path class="st4" rx="0" ry="0" d="M85.048,44.616L86.097,44.019L87.048,45.748L86.048,47.521L84.451,46.784Z"/></g></g><g id="shape-f4b1cc26-a059-8079-8002-a220d9ba1de5" rx="0" ry="0" style="fill: rgb(0, 0, 0);"><g id="shape-f4b1cc26-a059-8079-8002-a220d9ba59b2" rx="0" ry="0" style="fill: rgb(0, 0, 0);"><g id="shape-f4b1cc26-a059-8079-8002-a220d9bafda6"><g class="fills" id="fills-f4b1cc26-a059-8079-8002-a220d9bafda6"><path class="st9" rx="0" ry="0" d="M37.745,63.596L30.404,60.901L31.918,73.736L31.040,84.810L31.017,84.885L31.035,84.886L31.033,84.911L32.481,85.048L32.481,85.047L32.535,85.053L35.769,75.187L37.480,64.678L37.480,64.678Z" style="fill: rgb(0, 35, 104); fill-opacity: 1;"/></g></g><g id="shape-f4b1cc26-a059-8079-8002-a220d9bb642a"><g class="fills" id="fills-f4b1cc26-a059-8079-8002-a220d9bb642a"><path class="st9" rx="0" ry="0" d="M32.406,85.553L30.904,85.515L30.520,86.780L30.558,86.791L30.548,86.792L33.031,88.261L34.211,88.392L34.362,87.045L34.043,86.812Z" style="fill: rgb(0, 35, 104); fill-opacity: 1;"/></g></g></g><g id="shape-f4b1cc26-a059-8079-8002-a220d9bb642b" rx="0" ry="0" style="fill: rgb(0, 0, 0);"><g id="shape-f4b1cc26-a059-8079-8002-a220d9bb96d4"><g class="fills" id="fills-f4b1cc26-a059-8079-8002-a220d9bb96d4"><path class="st9" rx="0" ry="0" d="M42.746,63.816L40.543,85.793L39.090,85.859L37.629,73.992L35.099,62.174Z" style="fill: rgb(0, 35, 104); fill-opacity: 1;"/></g></g><g id="shape-f4b1cc26-a059-8079-8002-a220d9bbfd03"><g class="fills" id="fills-f4b1cc26-a059-8079-8002-a220d9bbfd03"><path class="st9" rx="0" ry="0" d="M40.538,86.304L42.464,87.393L42.283,88.299L38.844,87.782L39.046,86.476Z" style="fill: rgb(0, 35, 104); fill-opacity: 1;"/></g></g></g><g id="shape-f4b1cc26-a059-8079-8002-a220d9bbfd04" rx="0" ry="0" style="fill: rgb(0, 0, 0);"><g id="shape-f4b1cc26-a059-8079-8002-a220d9bc7214" rx="0" ry="0" style="fill: rgb(0, 0, 0);"><g id="shape-f4b1cc26-a059-8079-8002-a220d9bd7ee8"><g class="fills" id="fills-f4b1cc26-a059-8079-8002-a220d9bd7ee8"><path class="st10" rx="0" ry="0" d="M46.187,69.335C46.651,69.013,46.662,68.453,46.661,67.891C46.660,66.836,46.469,65.759,46.228,64.734C45.766,62.812,45.245,60.498,45.014,58.007C44.420,51.571,42.384,47.252,42.384,47.252L41.727,45.503C41.597,45.275,41.461,45.051,41.320,44.829C40.499,43.544,39.074,41.360,37.551,41.002C37.519,40.995,37.487,40.987,37.455,40.980C35.852,40.628,33.800,40.791,32.352,41.569C32.077,41.716,31.833,41.913,31.590,42.108C30.882,42.678,30.305,42.986,29.999,43.856C29.734,44.611,29.673,45.434,29.527,46.216C29.230,47.803,29.053,49.410,28.816,51.008C28.372,54.003,27.994,57.008,27.519,59.999C27.275,61.539,27.028,63.080,26.913,64.636C26.811,66.012,25.568,67.407,24.869,68.640C24.626,69.069,28.117,70.180,28.430,70.254C29.878,70.591,31.418,70.504,32.911,70.511C36.181,70.526,39.453,70.425,42.716,70.210C43.801,70.137,45.138,69.932,46.100,69.393C46.128,69.374,46.159,69.355,46.187,69.335ZZ" style="fill: rgb(20, 94, 150); fill-opacity: 1;"/></g></g></g><g id="shape-f4b1cc26-a059-8079-8002-a220d9bde6cf"><g class="fills" id="fills-f4b1cc26-a059-8079-8002-a220d9bde6cf"><path class="st10" rx="0" ry="0" d="M35.657,40.805C35.657,40.805,33.815,40.309,33.560,44.458C33.304,48.607,32.881,59.109,32.287,61.989C31.693,64.869,30.802,70.516,30.802,70.516L36.444,70.712L42.892,70.204C42.892,70.204,40.687,66.139,40.347,63.259C40.007,60.379,40.601,49.539,39.159,45.474C37.717,41.410,37.415,40.878,35.657,40.805ZZ" style="fill: rgb(20, 94, 150); fill-opacity: 1;"/></g></g><g id="shape-f4b1cc26-a059-8079-8002-a220d9be1631" rx="0" ry="0" style="fill: rgb(0, 0, 0);"><g id="shape-f4b1cc26-a059-8079-8002-a220d9be7915"><g class="fills" id="fills-f4b1cc26-a059-8079-8002-a220d9be7915"><path class="st11" rx="0" ry="0" d="M43.995,50.047L44.420,50.556L45.947,48.439L39.839,41.663L37.547,40.986L38.650,43.949Z" style="fill: rgb(20, 94, 150); fill-opacity: 1;"/></g></g></g><g id="shape-f4b1cc26-a059-8079-8002-a220d9beb949"><g class="fills" id="fills-f4b1cc26-a059-8079-8002-a220d9beb949"><path class="st12" rx="0" ry="0" d="M38.890,48.294L37.550,47.274L37.961,46.684L39.033,47.178L39.098,46.810L40.139,47.822L39.794,48.494Z" style="fill: rgb(20, 94, 150); fill-opacity: 1;"/></g></g><g id="shape-f4b1cc26-a059-8079-8002-a220d9beb94a" rx="0" ry="0" style="fill: rgb(0, 0, 0);"><g id="shape-f4b1cc26-a059-8079-8002-a220d9bee5d9"><g class="fills" id="fills-f4b1cc26-a059-8079-8002-a220d9bee5d9"><path class="st11" rx="0" ry="0" d="M44.141,48.033L44.081,48.166L39.902,47.361L39.286,48.729L44.420,50.556Z" style="fill: rgb(20, 94, 150); fill-opacity: 1;"/></g></g></g></g><g id="shape-f4b1cc26-a059-8079-8002-a220d9bf0e85" rx="0" ry="0" style="fill: rgb(0, 0, 0);"><g id="shape-f4b1cc26-a059-8079-8002-a220d9bf55d7" rx="0" ry="0" style="fill: rgb(0, 0, 0);"><g id="shape-f4b1cc26-a059-8079-8002-a220d9c0143c"><g class="fills" id="fills-f4b1cc26-a059-8079-8002-a220d9c0143c"><path class="st13" rx="0" ry="0" d="M38.227,37.517C38.506,38.352,38.102,39.243,37.748,40.005C37.434,40.680,37.325,41.124,38.123,41.307C38.572,41.410,39.370,41.601,39.764,41.258C40.062,40.998,39.894,40.195,39.749,39.875C39.638,39.631,39.345,39.507,39.241,39.261C39.198,39.160,39.192,39.047,39.190,38.937C39.184,38.486,39.247,38.035,39.375,37.603C39.462,37.310,39.580,37.021,39.607,36.717C39.645,36.275,39.332,35.760,39.167,35.353C38.862,34.598,37.795,33.585,36.903,34.178C36.699,34.312,36.581,34.541,36.483,34.763C36.424,34.897,36.368,35.035,36.367,35.181C36.359,35.761,36.891,35.858,37.256,36.135C37.706,36.476,38.049,36.984,38.227,37.517ZZ"/></g></g><g id="shape-f4b1cc26-a059-8079-8002-a220d9c07888"><g class="fills" id="fills-f4b1cc26-a059-8079-8002-a220d9c07888"><path class="st14" rx="0" ry="0" d="M36.530,40.778C37.304,40.595,37.909,39.947,38.199,39.209C38.490,38.470,38.504,37.652,38.425,36.861C38.157,34.234,34.883,34.403,33.775,36.417C32.809,38.171,34.280,41.307,36.530,40.778ZZ"/></g></g></g><g id="shape-f4b1cc26-a059-8079-8002-a220d9c0def8"><g class="fills" id="fills-f4b1cc26-a059-8079-8002-a220d9c0def8"><path class="st14" rx="0" ry="0" d="M36.529,40.495C36.515,40.794,36.503,41.094,36.489,41.393C36.487,41.437,36.483,41.485,36.452,41.516C36.418,41.552,36.362,41.553,36.311,41.551C36.067,41.542,35.823,41.534,35.579,41.525C35.457,41.521,35.332,41.515,35.225,41.458C34.992,41.333,34.943,41.017,34.981,40.755C35.018,40.492,35.112,40.228,35.057,39.969C35.561,40.218,36.041,39.657,36.546,39.904L36.529,40.495ZZ"/></g></g></g><g id="shape-f4b1cc26-a059-8079-8002-a220d9c193c6"><g class="fills" id="fills-f4b1cc26-a059-8079-8002-a220d9c193c6"><path class="st13" rx="0" ry="0" d="M35.473,32.307C34.614,32.598,34.062,33.466,33.224,33.812C32.742,34.011,32.173,34.037,31.780,34.378C30.900,35.144,31.607,36.750,30.884,37.664C30.735,37.854,30.531,37.998,30.381,38.187C30.056,38.596,30.013,39.155,29.984,39.675C29.977,39.793,29.976,39.920,29.996,40.039C30.109,41.243,31.861,41.167,32.556,41.090C33.319,41.006,33.065,40.582,33.065,40.582L33.037,40.547C32.963,40.059,33.165,39.537,33.550,39.226C33.692,39.111,33.862,39.017,33.962,38.864C34.188,38.520,33.972,38.063,34.005,37.653C34.139,35.999,36.920,36.353,37.704,35.176C38.670,33.733,37.097,31.756,35.473,32.307ZZ"/></g></g></g><g id="shape-f4b1cc26-a059-8079-8002-a220d9c24eab"><g class="fills" id="fills-f4b1cc26-a059-8079-8002-a220d9c24eab"><path class="st7" rx="0" ry="0" d="M43.805,37.209C43.675,37.144,43.544,37.081,43.411,37.018C44.735,35.100,45.451,32.745,45.451,30.249C45.451,24.229,41.197,19.332,35.969,19.332C30.741,19.332,26.487,24.229,26.487,30.249C26.487,32.745,27.204,35.101,28.527,37.018C28.322,37.113,28.184,37.181,28.124,37.212C22.567,39.759,18.979,45.321,18.979,51.394L18.979,55.178C18.979,56.807,20.306,58.131,21.938,58.131L49.998,58.131C51.630,58.131,52.957,56.806,52.957,55.178L52.957,51.394C52.959,45.320,49.367,39.754,43.805,37.209ZZ"/></g></g><g id="shape-f4b1cc26-a059-8079-8002-a220d9c2e8dd"><g class="fills" id="fills-f4b1cc26-a059-8079-8002-a220d9c2e8dd"><path class="st8" rx="0" ry="0" d="M43.362,38.132C43.310,38.194,43.261,38.258,43.210,38.319C41.293,40.562,38.722,41.797,35.970,41.797C33.219,41.797,30.647,40.562,28.730,38.319C28.678,38.258,28.629,38.194,28.578,38.132C23.534,40.432,20.006,45.522,20.006,51.395L20.006,55.179C20.006,56.246,20.872,57.110,21.940,57.110L50.000,57.110C51.069,57.110,51.935,56.245,51.935,55.179L51.935,51.395C51.935,45.522,48.406,40.432,43.362,38.132ZL43.362,38.132Z" style="fill: rgb(0, 35, 105); fill-opacity: 1;"/></g></g><g id="shape-f4b1cc26-a059-8079-8002-a220d9c3b363"><g class="fills" id="fills-f4b1cc26-a059-8079-8002-a220d9c3b363"><path class="st8" rx="0" ry="0" d="M35.970,40.143C38.191,40.143,40.213,39.140,41.721,37.500C43.384,35.693,44.426,33.114,44.426,30.249C44.426,24.784,40.640,20.355,35.969,20.355C31.298,20.355,27.512,24.784,27.512,30.249C27.512,33.114,28.554,35.693,30.217,37.500C31.727,39.140,33.748,40.143,35.970,40.143ZZ" style="fill: rgb(0, 35, 105); fill-opacity: 1;"/></g></g><g id="shape-f4b1cc26-a059-8079-8002-a220d9b9cf53"><g class="fills" id="fills-f4b1cc26-a059-8079-8002-a220d9b9cf53"><path class="st4" rx="0" ry="0" d="M115.785,43.804L114.736,43.207L113.784,44.935L114.784,46.709L116.381,45.972Z"/></g></g><g id="shape-f4b1cc26-a059-8079-8002-a220d9c4927a"><g class="fills" id="fills-f4b1cc26-a059-8079-8002-a220d9c4927a"><path class="st15" rx="0" ry="0" d="M75.475,85.841L75.612,86.910L73.607,88.255L72.397,87.323L73.331,86.115L75.336,84.770Z"/></g></g><g id="shape-f4b1cc26-a059-8079-8002-a220d9c4c912" rx="0" ry="0" style="fill: rgb(0, 0, 0);"><g id="shape-f4b1cc26-a059-8079-8002-a220d9c50e19"><g class="fills" id="fills-f4b1cc26-a059-8079-8002-a220d9c50e19"><path class="st16" rx="0" ry="0" d="M75.542,85.480L73.995,71.836L75.857,56.562L75.438,53.312L67.124,52.997L66.825,58.285L68.220,71.857L73.471,86.179Z" style="fill: rgb(0, 35, 105); fill-opacity: 1;"/></g></g></g><g id="shape-f4b1cc26-a059-8079-8002-a220d9c50e1a"><g class="fills" id="fills-f4b1cc26-a059-8079-8002-a220d9c50e1a"><path class="st9" rx="0" ry="0" d="M66.344,37.900L62.163,39.037L57.326,47.590L59.617,49.708L62.841,45.897Z" style="fill: rgb(246, 197, 60); fill-opacity: 1;"/></g></g><g id="shape-f4b1cc26-a059-8079-8002-a220d9c5669a" rx="0" ry="0" style="fill: rgb(0, 0, 0);"><g id="shape-f4b1cc26-a059-8079-8002-a220d9c5b997"><g class="fills" id="fills-f4b1cc26-a059-8079-8002-a220d9c5b997"><path class="st16" rx="0" ry="0" d="M61.025,54.526L61.003,68.295L63.779,86.021L65.778,86.000L66.877,69.608L69.448,53.202Z" style="fill: rgb(0, 35, 105); fill-opacity: 1;"/></g></g><g id="shape-f4b1cc26-a059-8079-8002-a220d9c5f408"><g class="fills" id="fills-f4b1cc26-a059-8079-8002-a220d9c5f408"><path class="st15" rx="0" ry="0" d="M65.774,86.841L63.624,87.942L62.533,86.875L63.603,85.784L65.765,85.763Z" style="fill: rgb(0, 35, 105); fill-opacity: 1;"/></g></g></g><g id="shape-f4b1cc26-a059-8079-8002-a220d9c63331" rx="0" ry="0" style="fill: rgb(0, 0, 0);"><g id="shape-f4b1cc26-a059-8079-8002-a220d9c6eb7c"><g class="fills" id="fills-f4b1cc26-a059-8079-8002-a220d9c6eb7c"><path class="st9" rx="0" ry="0" d="M76.717,59.209C76.697,58.613,76.664,58.114,76.660,57.936C76.617,56.335,76.475,54.739,76.274,53.149C76.093,51.724,75.866,48.189,75.622,46.774C75.421,45.606,74.718,42.689,74.211,41.605C72.948,38.908,73.338,38.660,67.793,37.860C65.363,37.509,64.789,39.021,62.802,40.759C62.606,40.931,62.617,41.951,62.571,42.222C62.492,42.699,62.406,43.174,62.307,43.647C62.230,44.019,62.145,44.389,62.050,44.758C61.061,48.569,59.924,52.233,59.692,56.183C59.626,57.298,59.283,58.380,59.313,59.504C59.317,59.634,59.328,59.773,59.407,59.873C59.742,60.296,61.596,59.650,62.158,59.595C63.589,59.454,65.049,59.366,66.487,59.377C67.964,59.388,69.446,59.537,70.898,59.787C71.869,59.949,72.860,60.184,73.728,60.638C74.557,61.070,75.154,61.704,75.995,62.152C76.075,62.194,76.162,62.237,76.253,62.225C76.734,62.158,76.757,60.465,76.717,59.209ZZ" style="fill: rgb(246, 197, 60); fill-opacity: 1;"/></g></g></g><g id="shape-f4b1cc26-a059-8079-8002-a220d9c73704" rx="0" ry="0" style="fill: rgb(0, 0, 0);"><g id="shape-f4b1cc26-a059-8079-8002-a220d9c7fd8c"><g class="fills" id="fills-f4b1cc26-a059-8079-8002-a220d9c7fd8c"><path class="st14" rx="0" ry="0" d="M67.787,38.619C68.067,38.758,68.727,38.807,69.416,38.537C69.554,38.483,69.648,38.350,69.647,38.200C69.642,37.783,69.607,37.365,69.546,36.952C70.063,36.771,70.659,36.499,70.750,35.960C70.778,35.790,70.749,35.617,70.719,35.447C70.598,34.745,70.476,34.044,70.355,33.342C70.313,33.099,70.267,32.850,70.136,32.641C69.904,32.276,69.454,32.117,69.028,32.044C67.939,31.855,66.754,32.090,65.911,32.802C65.686,32.992,65.484,33.218,65.384,33.495C65.232,33.921,65.346,34.391,65.460,34.828C65.567,35.232,65.673,35.635,65.779,36.040C65.902,36.504,66.078,37.032,66.527,37.206C66.765,37.299,67.046,37.271,67.262,37.408C67.640,37.652,67.590,38.216,67.787,38.619ZZ"/></g></g><g id="shape-f4b1cc26-a059-8079-8002-a220d9c84dac"><g class="fills" id="fills-f4b1cc26-a059-8079-8002-a220d9c84dac"><path class="st13" rx="0" ry="0" d="M61.785,31.594C61.598,29.852,62.360,28.018,63.796,28.383C64.665,28.604,65.443,28.970,66.318,28.644C67.140,28.338,67.734,28.463,68.593,28.769C69.524,29.100,70.772,29.178,71.614,29.646C71.965,29.841,72.246,30.147,72.464,30.484C73.222,31.652,73.226,33.262,72.474,34.435C72.306,34.698,72.103,34.938,71.892,35.167C71.453,35.643,70.929,36.229,70.325,36.405C70.310,35.866,70.803,34.166,70.388,33.724C69.730,33.024,68.241,33.267,67.425,33.440C66.534,33.629,65.741,34.258,64.858,34.392C62.910,34.688,61.955,33.179,61.785,31.594ZZ"/></g></g></g><g id="shape-f4b1cc26-a059-8079-8002-a220d9c3e864"><g class="fills" id="fills-f4b1cc26-a059-8079-8002-a220d9c3e864"><path class="st12" rx="0" ry="0" d="M20.602,44.616L21.650,44.019L22.603,45.748L21.602,47.521L20.006,46.784Z"/></g></g><g id="shape-f4b1cc26-a059-8079-8002-a220d9c41dd0"><g class="fills" id="fills-f4b1cc26-a059-8079-8002-a220d9c41dd0"><path class="st12" rx="0" ry="0" d="M51.338,43.804L50.290,43.207L49.338,44.935L50.338,46.709L51.935,45.972Z"/></g></g><g id="shape-f4b1cc26-a059-8079-8002-a221e4d42f1a" rx="0" ry="0"><g id="shape-f4b1cc26-a059-8079-8002-a220d9c8d9ed"><g class="fills" id="fills-f4b1cc26-a059-8079-8002-a220d9c8d9ed"><path class="st7" rx="0" ry="0" d="M77.927,27.886C77.775,27.810,77.621,27.735,77.465,27.663C79.013,25.420,79.851,22.666,79.851,19.748C79.851,12.709,74.878,6.982,68.764,6.982C62.650,6.982,57.677,12.709,57.677,19.748C57.677,22.669,58.515,25.421,60.063,27.664C59.822,27.774,59.663,27.855,59.593,27.891C53.095,30.869,48.898,37.374,48.898,44.474L48.898,48.898C48.898,50.803,50.451,52.353,52.359,52.353L85.170,52.353C87.079,52.353,88.631,50.803,88.631,48.898L88.631,44.474C88.631,37.370,84.430,30.861,77.927,27.886ZZ"/></g></g><g id="shape-f4b1cc26-a059-8079-8002-a220d9c8d9ee" rx="0" ry="0" style="fill: rgb(0, 0, 0);"><g id="shape-f4b1cc26-a059-8079-8002-a220d9c90749"><g class="fills" id="fills-f4b1cc26-a059-8079-8002-a220d9c90749"><path class="st1" rx="0" ry="0" d="M77.409,28.965C77.349,29.037,77.292,29.112,77.231,29.184C74.989,31.807,71.983,33.251,68.765,33.251C65.547,33.251,62.542,31.807,60.300,29.184C60.238,29.113,60.181,29.039,60.122,28.965C54.223,31.655,50.098,37.606,50.098,44.474L50.098,48.898C50.098,50.145,51.111,51.156,52.360,51.156L85.172,51.156C86.421,51.156,87.433,50.145,87.433,48.898L87.433,44.474C87.432,37.606,83.307,31.655,77.409,28.965ZZ" style="fill: rgb(20, 94, 150); fill-opacity: 1;"/></g></g><g id="shape-f4b1cc26-a059-8079-8002-a220d9c98650"><g class="fills" id="fills-f4b1cc26-a059-8079-8002-a220d9c98650"><path class="st1" rx="0" ry="0" d="M68.765,31.317C71.363,31.317,73.726,30.144,75.491,28.226C77.436,26.113,78.653,23.097,78.653,19.748C78.653,13.359,74.227,8.178,68.765,8.178C63.304,8.178,58.877,13.357,58.877,19.748C58.877,23.099,60.096,26.115,62.040,28.226C63.805,30.144,66.167,31.317,68.765,31.317ZZ" style="fill: rgb(20, 94, 150); fill-opacity: 1;"/></g></g></g></g><g id="shape-f4b1cc26-a059-8079-8002-a220d9c9c8d8"><g class="fills" id="fills-f4b1cc26-a059-8079-8002-a220d9c9c8d8"><path class="st12" rx="0" ry="0" d="M57.586,52.298L57.130,51.183L58.969,50.465L60.603,51.684L59.664,53.169Z"/></g></g><g id="shape-f4b1cc26-a059-8079-8002-a220d9ca1f14"><g class="fills" id="fills-f4b1cc26-a059-8079-8002-a220d9ca1f14"><path class="st12" rx="0" ry="0" d="M78.133,52.292L78.586,51.176L76.743,50.464L75.114,51.689L76.059,53.170Z"/></g></g></g></g></svg>