<svg xmlns:xlink="http://www.w3.org/1999/xlink" width="42.653" xmlns="http://www.w3.org/2000/svg" height="32.259" id="screenshot-ed34a149-0bc1-80c3-8002-a0e3960aee7b" viewBox="-0.127 -0.132 42.653 32.259" style="-webkit-print-color-adjust: exact;" fill="none" version="1.1"><g id="shape-ed34a149-0bc1-80c3-8002-a0e3960aee7b" rx="0" ry="0" style="fill: rgb(0, 0, 0);"><g id="shape-ed34a149-0bc1-80c3-8002-a0e3960aee7c"><g class="fills" id="fills-ed34a149-0bc1-80c3-8002-a0e3960aee7c"><path rx="0" ry="0" d="M3.701,11.135C2.468,11.136,1.234,11.135,0.000,11.135L0.000,17.018L4.606,17.018C5.285,18.987,6.329,20.818,7.686,22.422L5.008,25.027L9.273,29.176L12.284,26.247C14.110,27.296,16.116,28.014,18.205,28.366L18.205,32.000L24.237,32.000L24.237,28.361C26.276,28.013,28.236,27.316,30.025,26.303L33.199,29.390L37.464,25.241L34.651,22.505C36.047,20.878,37.118,19.012,37.811,17.003L42.400,17.003L42.400,11.135L38.722,11.135L32.238,11.135L32.185,11.135C32.192,11.285,32.195,11.434,32.195,11.584C32.195,17.488,27.275,22.274,21.205,22.274C15.136,22.274,10.215,17.488,10.215,11.584C10.220,11.434,10.227,11.284,10.238,11.135Z" style="fill: rgb(0, 35, 104); fill-opacity: 1;"/></g><g id="strokes-ed34a149-0bc1-80c3-8002-a0e3960aee7c" class="strokes"><g class="stroke-shape"><path rx="0" ry="0" d="M3.701,11.135C2.468,11.136,1.234,11.135,0.000,11.135L0.000,17.018L4.606,17.018C5.285,18.987,6.329,20.818,7.686,22.422L5.008,25.027L9.273,29.176L12.284,26.247C14.110,27.296,16.116,28.014,18.205,28.366L18.205,32.000L24.237,32.000L24.237,28.361C26.276,28.013,28.236,27.316,30.025,26.303L33.199,29.390L37.464,25.241L34.651,22.505C36.047,20.878,37.118,19.012,37.811,17.003L42.400,17.003L42.400,11.135L38.722,11.135L32.238,11.135L32.185,11.135C32.192,11.285,32.195,11.434,32.195,11.584C32.195,17.488,27.275,22.274,21.205,22.274C15.136,22.274,10.215,17.488,10.215,11.584C10.220,11.434,10.227,11.284,10.238,11.135Z" style="fill: none; stroke-width: 0.253339;"/></g></g></g><g id="shape-ed34a149-0bc1-80c3-8002-a0e3960aee7d" rx="0" ry="0" style="fill: rgb(0, 0, 0);"><g id="shape-ed34a149-0bc1-80c3-8002-a0e3960aee7e"><g class="fills" id="fills-ed34a149-0bc1-80c3-8002-a0e3960aee7e"><path rx="0" ry="0" d="M17.367,20.592C15.959,19.999,14.987,19.320,14.152,18.546C12.199,16.738,11.718,14.896,11.718,14.896L11.718,9.304L17.372,9.304Z" style="stroke: none; fill: rgb(246, 197, 60); fill-opacity: 1;"/></g><g id="strokes-ed34a149-0bc1-80c3-8002-a0e3960aee7e" class="strokes"><g class="stroke-shape"><path rx="0" ry="0" d="M17.367,20.592C15.959,19.999,14.987,19.320,14.152,18.546C12.199,16.738,11.718,14.896,11.718,14.896L11.718,9.304L17.372,9.304Z" style="stroke: none; fill: none; stroke-width: 0.264583; stroke-opacity: 1;"/></g></g></g><g id="shape-ed34a149-0bc1-80c3-8002-a0e3960aee7f"><g class="fills" id="fills-ed34a149-0bc1-80c3-8002-a0e3960aee7f"><path rx="0" ry="0" d="M25.033,20.592C26.441,19.999,27.421,19.328,28.248,18.546C30.012,16.880,30.682,14.973,30.682,14.973L30.682,0.000L25.042,0.000Z" style="stroke: none; fill: rgb(246, 197, 60); fill-opacity: 1;"/></g><g id="strokes-ed34a149-0bc1-80c3-8002-a0e3960aee7f" class="strokes"><g class="stroke-shape"><path rx="0" ry="0" d="M25.033,20.592C26.441,19.999,27.421,19.328,28.248,18.546C30.012,16.880,30.682,14.973,30.682,14.973L30.682,0.000L25.042,0.000Z" style="stroke: none; fill: none; stroke-width: 0.264583; stroke-opacity: 1;"/></g></g></g><g id="shape-ed34a149-0bc1-80c3-8002-a0e3960aee80"><g class="fills" id="fills-ed34a149-0bc1-80c3-8002-a0e3960aee80"><path rx="0" ry="0" d="M18.365,4.610L24.005,4.610L24.005,20.792C24.005,20.792,22.899,21.136,21.123,21.136C19.326,21.136,18.379,20.792,18.379,20.792Z" style="stroke: none; fill: rgb(246, 197, 60); fill-opacity: 1;"/></g><g id="strokes-ed34a149-0bc1-80c3-8002-a0e3960aee80" class="strokes"><g class="stroke-shape"><path rx="0" ry="0" d="M18.365,4.610L24.005,4.610L24.005,20.792C24.005,20.792,22.899,21.136,21.123,21.136C19.326,21.136,18.379,20.792,18.379,20.792Z" style="stroke: none; fill: none; stroke-width: 0.264583; stroke-opacity: 1;"/></g></g></g></g></g></svg>