<?xml version="1.0" encoding="UTF-8" standalone="no"?>
<!-- Created with Inkscape (http://www.inkscape.org/) -->

<svg
   width="177.18852mm"
   height="155.41374mm"
   viewBox="0 0 177.18852 155.41374"
   version="1.1"
   id="svg18290"
   xmlns="http://www.w3.org/2000/svg"
   xmlns:svg="http://www.w3.org/2000/svg">
  <defs
     id="defs18287" />
  <g
     id="layer1"
     transform="translate(-16.40571,-49.247027)">
    <g
       id="g14088"
       style="display:inline"
       transform="matrix(4.7861686,0,0,4.7861686,104.09669,-431.34877)">
      <rect
         style="fill:#002369;fill-opacity:1;stroke:#002369;stroke-width:1.17281;stroke-dasharray:none;stroke-opacity:1"
         id="rect9391-5"
         width="35.847809"
         height="20.687502"
         x="-17.735008"
         y="111.61099" />
      <path
         id="path9447-1"
         style="fill:#002369;fill-opacity:1;stroke:#002369;stroke-width:1.13494;stroke-dasharray:none"
         d="m 0.18873777,100.98122 a 17.94281,9.5545851 0 0 0 -17.94301677,9.55435 17.94281,9.5545851 0 0 0 0.06196,0.75826 17.94281,9.5545851 0 0 1 0.09631,-0.2963 17.94281,9.5545851 0 0 1 0.290238,-0.63436 17.94281,9.5545851 0 0 1 0.370377,-0.62156 17.94281,9.5545851 0 0 1 0.449837,-0.60675 17.94281,9.5545851 0 0 1 0.525934,-0.58923 17.94281,9.5545851 0 0 1 0.600682,-0.56903 17.94281,9.5545851 0 0 1 0.672064,-0.54546 17.94281,9.5545851 0 0 1 0.740078,-0.51987 17.94281,9.5545851 0 0 1 0.805399,-0.49159 17.94281,9.5545851 0 0 1 0.866004,-0.46129 17.94281,9.5545851 0 0 1 0.923246,-0.42896 17.94281,9.5545851 0 0 1 0.976445,-0.39395 17.94281,9.5545851 0 0 1 1.0242568,-0.35825 17.94281,9.5545851 0 0 1 1.068029,-0.3192 17.94281,9.5545851 0 0 1 1.106411,-0.28013 17.94281,9.5545851 0 0 1 1.140083,-0.23974 17.94281,9.5545851 0 0 1 1.167696,-0.19731 17.94281,9.5545851 0 0 1 1.189914,-0.15421 17.94281,9.5545851 0 0 1 1.207425,-0.11112 17.94281,9.5545851 0 0 1 1.218872,-0.0667 17.94281,9.5545851 0 0 1 1.22426097,-0.0222 17.94281,9.5545851 0 0 1 0.408761,0.003 17.94281,9.5545851 0 0 1 0.408085,0.007 17.94281,9.5545851 0 0 1 0.40808603,0.0121 17.94281,9.5545851 0 0 1 0.40674,0.0175 17.94281,9.5545851 0 0 1 0.406739,0.0222 17.94281,9.5545851 0 0 1 0.405392,0.0269 17.94281,9.5545851 0 0 1 0.404047,0.0323 17.94281,9.5545851 0 0 1 0.402026,0.037 17.94281,9.5545851 0 0 1 0.40068,0.0417 17.94281,9.5545851 0 0 1 0.399332,0.0465 17.94281,9.5545851 0 0 1 0.396639,0.0512 17.94281,9.5545851 0 0 1 0.394618,0.0566 17.94281,9.5545851 0 0 1 0.391926,0.0613 17.94281,9.5545851 0 0 1 0.38923,0.0653 17.94281,9.5545851 0 0 1 0.386538,0.0707 17.94281,9.5545851 0 0 1 0.383171,0.0754 17.94281,9.5545851 0 0 1 0.380476,0.0795 17.94281,9.5545851 0 0 1 0.376435,0.0849 17.94281,9.5545851 0 0 1 0.372396,0.0889 17.94281,9.5545851 0 0 1 0.369029,0.0929 17.94281,9.5545851 0 0 1 0.364989,0.0983 17.94281,9.5545851 0 0 1 0.360273,0.10169 17.94281,9.5545851 0 0 1 0.356236,0.10708 17.94281,9.5545851 0 0 1 0.35152,0.11044 17.94281,9.5545851 0 0 1 0.346133,0.11515 17.94281,9.5545851 0 0 1 0.341419,0.11986 17.94281,9.5545851 0 0 1 0.3367052,0.12324 17.94281,9.5545851 0 0 1 0.330645,0.12728 17.94281,9.5545851 0 0 1 0.325931,0.13131 17.94281,9.5545851 0 0 1 0.31987,0.13536 17.94281,9.5545851 0 0 1 0.313807,0.1394 17.94281,9.5545851 0 0 1 0.307748,0.14276 17.94281,9.5545851 0 0 1 0.301687,0.1468 17.94281,9.5545851 0 0 1 0.294954,0.15017 17.94281,9.5545851 0 0 1 0.288894,0.15354 17.94281,9.5545851 0 0 1 0.282159,0.15758 17.94281,9.5545851 0 0 1 0.275425,0.16027 17.94281,9.5545851 0 0 1 0.268692,0.16431 17.94281,9.5545851 0 0 1 0.261281,0.16701 17.94281,9.5545851 0 0 1 0.253878,0.17037 17.94281,9.5545851 0 0 1 0.24714,0.17307 17.94281,9.5545851 0 0 1 0.23906,0.17643 17.94281,9.5545851 0 0 1 0.231654,0.17913 17.94281,9.5545851 0 0 1 0.224246,0.18182 17.94281,9.5545851 0 0 1 0.216164,0.18451 17.94281,9.5545851 0 0 1 0.208084,0.18721 17.94281,9.5545851 0 0 1 0.200676,0.1899 17.94281,9.5545851 0 0 1 0.191923,0.19192 17.94281,9.5545851 0 0 1 0.18384,0.19395 17.94281,9.5545851 0 0 1 0.175085,0.19663 17.94281,9.5545851 0 0 1 0.167006,0.19866 17.94281,9.5545851 0 0 1 0.158925,0.2 17.94281,9.5545851 0 0 1 0.149498,0.2027 17.94281,9.5545851 0 0 1 0.141416,0.20404 17.94281,9.5545851 0 0 1 0.131988,0.20539 17.94281,9.5545851 0 0 1 0.123914,0.2074 17.94281,9.5545851 0 0 1 0.114481,0.20877 17.94281,9.5545851 0 0 1 0.105727,0.2101 17.94281,9.5545851 0 0 1 0.09696,0.21144 17.94281,9.5545851 0 0 1 0.08754,0.21281 17.94281,9.5545851 0 0 1 0.07811,0.21346 17.94281,9.5545851 0 0 1 0.07003,0.21415 17.94281,9.5545851 0 0 1 0.05993,0.21482 17.94281,9.5545851 0 0 1 0.05117,0.21617 17.94281,9.5545851 0 0 1 0.04175,0.21617 17.94281,9.5545851 0 0 1 0.01482,0.1016 17.94281,9.5545851 0 0 0 0.276772,-1.63841 17.94281,9.5545851 0 0 0 -17.94301423,-9.55434 z" />
      <path
         style="fill:#f6c53c;fill-opacity:1;stroke:#f6c53c;stroke-width:1.17281;stroke-dasharray:none;stroke-opacity:1"
         d="M 18.155483,111.29383 2.1352948,123.22342"
         id="path9399-5-4" />
      <circle
         style="fill:#002369;fill-opacity:1;stroke:#f6c53c;stroke-width:1.17281;stroke-dasharray:none;stroke-opacity:1"
         id="path9397-2"
         cx="0.23157923"
         cy="123.22343"
         r="1.9037173" />
      <path
         style="fill:#f6c53c;fill-opacity:1;stroke:#f6c53c;stroke-width:1.17281;stroke-dasharray:none;stroke-opacity:1"
         d="m -17.692328,111.29383 16.0201888,11.92959"
         id="path9399-6" />
      <path
         id="path9478-6"
         style="fill:#002369;fill-opacity:1;stroke:#f6c53c;stroke-width:1.17281;stroke-dasharray:none;stroke-opacity:1"
         d="m 5.8043532,120.26713 3.809643,9.98217 2.0024648,-2.02306 3.118743,3.03917 2.570494,-2.63781 -3.09819,-3.01912 1.967542,-1.98723 z" />
    </g>
  </g>
</svg>
