<?xml version="1.0" encoding="UTF-8" standalone="no"?>
<!-- Created with Inkscape (http://www.inkscape.org/) -->

<svg
   width="210mm"
   height="192.90857mm"
   viewBox="0 0 210 192.90856"
   version="1.1"
   id="svg16196"
   xmlns="http://www.w3.org/2000/svg"
   xmlns:svg="http://www.w3.org/2000/svg">
  <defs
     id="defs16193" />
  <g
     id="layer1"
     transform="translate(0,-62.228571)">
    <g
       id="g17061"
       style="display:inline"
       transform="matrix(4.8062665,0,0,4.8062665,-122.71637,-180.20069)">
      <path
         id="path5941-0"
         style="fill:#002369;fill-opacity:1;stroke:#002369;stroke-width:0.9;stroke-dasharray:none"
         d="m 28.86592,52.141469 c -0.01292,17.11884 0.0738,17.086787 0,35.655763 L 44.301787,82.045568 V 57.892533 Z" />
      <path
         id="path5941-8-0"
         style="fill:#002369;fill-opacity:1;stroke:#002369;stroke-width:0.9;stroke-dasharray:none"
         d="m 59.737653,52.141469 c 0.01292,17.11884 -0.0738,17.086787 0,35.655763 L 44.301787,82.045568 V 57.892533 Z" />
      <path
         style="fill:none;stroke:#f6c53c;stroke-width:0.9;stroke-dasharray:none;stroke-opacity:1"
         d="m 30.749144,60.117073 11.666981,2.163988 m 0.03316,-0.04564"
         id="path7520-9" />
      <path
         style="fill:none;stroke:#f6c53c;stroke-width:0.9;stroke-dasharray:none;stroke-opacity:1"
         d="m 30.706733,64.052922 11.709392,1.116949"
         id="path7520-56-5" />
      <path
         style="fill:none;stroke:#f6c53c;stroke-width:0.9;stroke-dasharray:none;stroke-opacity:1"
         d="M 30.706733,67.113492 42.416125,67.50557"
         id="path7520-5-69" />
      <path
         style="fill:none;stroke:#f6c53c;stroke-width:0.9;stroke-dasharray:none;stroke-opacity:1"
         d="m 30.749144,78.657092 11.666981,-2.163987 m 0.03316,0.04564"
         id="path7520-3-1" />
      <path
         style="fill:none;stroke:#f6c53c;stroke-width:0.9;stroke-dasharray:none;stroke-opacity:1"
         d="M 30.706733,74.721244 42.416125,73.604295"
         id="path7520-56-8-0" />
      <path
         style="fill:none;stroke:#f6c53c;stroke-width:0.9;stroke-dasharray:none;stroke-opacity:1"
         d="M 30.706733,71.660673 42.416125,71.268596"
         id="path7520-5-0-9" />
      <path
         style="fill:none;stroke:#f6c53c;stroke-width:0.9;stroke-dasharray:none;stroke-opacity:1"
         d="m 57.853547,60.216644 -11.666981,2.163988 m -0.03316,-0.04564"
         id="path7520-4-1" />
      <path
         style="fill:none;stroke:#f6c53c;stroke-width:0.9;stroke-dasharray:none;stroke-opacity:1"
         d="m 57.895958,64.152492 -11.709392,1.11695"
         id="path7520-56-1-3" />
      <path
         style="fill:none;stroke:#f6c53c;stroke-width:0.9;stroke-dasharray:none;stroke-opacity:1"
         d="M 57.895958,67.213063 46.186566,67.60514"
         id="path7520-5-6-6" />
      <path
         style="fill:none;stroke:#f6c53c;stroke-width:0.9;stroke-dasharray:none;stroke-opacity:1"
         d="M 57.853547,78.756663 46.186566,76.592676 m -0.03316,0.04563"
         id="path7520-3-5-7" />
      <path
         style="fill:none;stroke:#f6c53c;stroke-width:0.9;stroke-dasharray:none;stroke-opacity:1"
         d="M 57.895958,74.820815 46.186566,73.703865"
         id="path7520-56-8-9-6" />
      <path
         style="fill:none;stroke:#f6c53c;stroke-width:0.9;stroke-dasharray:none;stroke-opacity:1"
         d="M 57.895958,71.760244 46.186566,71.368166"
         id="path7520-5-0-0-6" />
      <path
         id="path7694-9"
         style="fill:#002369;fill-opacity:1;stroke:#f6c53c;stroke-width:0.9;stroke-dasharray:none;stroke-opacity:1"
         d="m 47.193952,76.026953 v 6.979995 a 7.0767251,5.2205958 0 0 0 7.076461,5.221016 7.0767251,5.2205958 0 0 0 7.07646,-5.221016 7.0767251,5.2205958 0 0 0 -0.103688,-0.872227 v -6.107768 z" />
      <path
         id="rect7687-3"
         style="fill:#002369;fill-opacity:1;stroke:#f6c53c;stroke-width:0.9;stroke-dasharray:none;stroke-opacity:1"
         d="m 53.207583,70.705215 12.340423,4.777324 -9.503833,9.777628 -13.467604,-7.82662 z" />
      <path
         style="fill:#f6c53c;fill-opacity:1;stroke:#002369;stroke-width:0.9;stroke-dasharray:none"
         d="m 64.504081,75.48254 -0.03806,5.035648"
         id="path9264-3" />
      <ellipse
         style="fill:#002369;fill-opacity:1;stroke:#002369;stroke-width:0.9;stroke-dasharray:none"
         id="path9318-3"
         cx="64.485062"
         cy="82.127457"
         rx="0.88458991"
         ry="1.8534682" />
    </g>
  </g>
</svg>
