<?xml version="1.0" encoding="UTF-8" standalone="no"?>
<!-- Created with Inkscape (http://www.inkscape.org/) -->

<svg
   width="88.299728mm"
   height="167.15866mm"
   viewBox="0 0 88.29973 167.15866"
   version="1.1"
   id="svg5163"
   xmlns="http://www.w3.org/2000/svg"
   xmlns:svg="http://www.w3.org/2000/svg">
  <defs
     id="defs5160" />
  <g
     id="layer1"
     transform="translate(-66.188571,-42.389055)">
    <g
       id="g9444">
      <path
         id="path3034-8"
         style="fill:#ffffff;fill-opacity:1;stroke:none;stroke-width:4.90332;stroke-dasharray:none;stroke-opacity:1"
         d="M 80.726615,209.54772 H 146.54513 A 32.914655,61.791264 0 0 0 113.63309,148.1297 32.914655,61.791264 0 0 0 80.726615,209.54772 Z" />
      <circle
         style="fill:#ffffff;fill-opacity:1;stroke:none;stroke-width:4.90332;stroke-opacity:1"
         id="path2577-2"
         cx="113.63586"
         cy="125.97069"
         r="25.607555" />
      <path
         id="path3064-3"
         style="fill:#ffffff;fill-opacity:1;stroke:none;stroke-width:4.90332;stroke-dasharray:none;stroke-opacity:1"
         d="m 117.15499,42.389055 c -20.618777,1.34e-4 -37.333444,10.174992 -37.333311,22.726215 0.0088,6.589506 4.715688,12.852265 12.900536,17.164789 l 2.755787,14.640494 9.297888,-10.367613 c 3.97723,0.851944 8.16281,1.28762 12.3791,1.28854 20.61877,-1.35e-4 37.33344,-10.174989 37.33331,-22.72621 1.3e-4,-12.551223 -16.71453,-22.72608 -37.33331,-22.726215 z" />
      <path
         id="path3387-8"
         style="fill:#ffffff;fill-opacity:1;stroke:#002369;stroke-width:2.403;stroke-dasharray:none;stroke-opacity:1"
         d="m 111.77811,54.439568 c -4.07324,6.5e-5 -7.37525,3.452414 -7.3753,7.711092 0.002,2.896345 2.14476,5.211019 3.70876,7.172763 l 9.04342,9.203702 9.04336,-9.203702 c 1.564,-1.961744 3.70719,-4.276418 3.70882,-7.172763 -5e-5,-4.258678 -3.30211,-7.711027 -7.37536,-7.711092 -2.03815,2.94e-4 -3.98352,0.883372 -5.37682,2.436053 -1.39331,-1.552681 -3.33873,-2.435759 -5.37688,-2.436053 z" />
    </g>
  </g>
</svg>
