<?xml version="1.0" encoding="UTF-8" standalone="no"?>
<!-- Created with Inkscape (http://www.inkscape.org/) -->

<svg
   width="154.46358mm"
   height="117.90853mm"
   viewBox="0 0 154.46358 117.90853"
   version="1.1"
   id="svg12524"
   xmlns="http://www.w3.org/2000/svg"
   xmlns:svg="http://www.w3.org/2000/svg">
  <defs
     id="defs12521" />
  <g
     id="layer1"
     transform="translate(-28.98703,-26.360999)">
    <g
       id="g20519">
      <path
         id="path3064-9-0"
         style="fill:none;fill-opacity:1;stroke:#ffffff;stroke-width:5.46615;stroke-dasharray:none;stroke-opacity:1"
         d="m 106.21882,29.094074 c -41.144811,2.73e-4 -74.498958,20.304217 -74.498715,45.350204 0.01822,13.149371 9.41016,25.646712 25.743018,34.252372 l 3.383888,29.57095 20.6693,-21.04441 c 7.936547,1.70005 16.288886,2.56944 24.702509,2.57128 41.14481,-2.7e-4 74.49895,-20.304212 74.49871,-45.350192 2.4e-4,-25.045981 -33.3539,-45.349931 -74.49871,-45.350204 z" />
      <path
         id="path1406-5-1"
         style="display:inline;fill:#ffffff;fill-opacity:1;stroke:#ffffff;stroke-width:5.46615;stroke-dasharray:none;stroke-opacity:1"
         d="m 99.164264,37.634266 v 6.778003 c -3.272038,0.801726 -6.380638,2.1638 -9.188053,4.025898 l -5.474957,-5.25167 -9.613987,10.020948 5.677569,5.446709 c -1.292076,2.334441 -2.258006,4.835004 -2.870822,7.431845 h -6.593271 v 13.889513 h 6.743104 c 0.667782,2.628811 1.698698,5.151725 3.062988,7.495932 l -5.079268,5.29407 10.021883,9.612976 4.732532,-4.932281 c 2.646953,1.667091 5.544681,2.897881 8.582282,3.645271 v 6.778 h 13.887606 v -6.778 c 2.89123,-0.71017 5.6568,-1.858453 8.20074,-3.405003 l 4.31887,4.143673 9.6149,-10.021898 -4.11826,-3.950533 c 1.48248,-2.451004 2.59612,-5.106867 3.30514,-7.882207 h 6.96363 V 66.085999 h -6.81003 c -0.83049,-3.539169 -2.31474,-6.892075 -4.37639,-9.886226 l 4.32081,-4.504521 -10.02194,-9.614874 -4.6769,4.8767 c -2.12627,-1.125736 -4.38361,-1.984292 -6.72057,-2.55613 v -6.766682 z m 6.697916,14.925901 c 11.30558,4.9e-5 20.47055,9.165016 20.47061,20.470582 -6e-5,11.305579 -9.16503,20.470552 -20.47061,20.470594 -11.305577,-3.6e-5 -20.470551,-9.165009 -20.470611,-20.470588 6e-5,-11.305572 9.165034,-20.470545 20.470611,-20.470588 z" />
    </g>
  </g>
</svg>
